<svg width="222" height="35" viewBox="0 0 222 35" fill="none" xmlns="http://www.w3.org/2000/svg">
<path d="M31.5072 21.3315C31.2459 21.3315 30.9892 21.3513 30.736 21.3807C28.9247 20.3358 27.262 18.7304 26.0345 16.651C24.7962 14.554 24.2027 12.3166 24.186 10.2348C25.0354 9.12954 25.495 7.78133 25.4947 6.39525C25.4947 2.86313 22.5869 0 19.0002 0C15.4135 0 12.5057 2.86313 12.5057 6.39525C12.5057 7.80053 12.9715 9.09565 13.7512 10.1511C13.7504 12.2565 13.1573 14.5259 11.9028 16.651C10.6782 18.7249 9.02188 20.327 7.21614 21.3723C6.97657 21.3453 6.73566 21.3314 6.49452 21.3307C2.9078 21.3307 0 24.1938 0 27.7255C0 31.2576 2.9078 34.1224 6.49452 34.1224C9.12692 34.1224 11.3878 32.5763 12.4075 30.3586C14.2504 29.3045 16.5275 28.6716 19.0083 28.6716C21.4789 28.6716 23.7475 29.3003 25.5861 30.3464C26.6032 32.5708 28.8688 34.122 31.5063 34.122C35.0931 34.122 38 31.2581 38 27.7259C38.0009 24.1942 35.0939 21.3315 31.5072 21.3315V21.3315ZM12.3921 25.0613C12.2071 24.6654 11.9813 24.2892 11.7183 23.9386C11.7508 21.8798 12.3473 19.6739 13.5689 17.6051C14.8418 15.4501 16.5826 13.8047 18.4712 12.7649C18.6462 12.7787 18.8217 12.7913 19.0002 12.7913C19.1591 12.7913 19.3145 12.7791 19.4708 12.7678C21.3576 13.8081 23.0968 15.4518 24.3679 17.6051C25.607 19.7025 26.2014 21.9408 26.2181 24.0239C25.9792 24.3542 25.773 24.7062 25.6023 25.0752C23.7607 26.1268 21.4862 26.7588 19.0092 26.7588C16.5207 26.7588 14.238 26.1209 12.3921 25.0613V25.0613Z" fill="#5F5CEE"/>
<path d="M68.5192 28.4441V5.29102H63.8852V20.549L54.9568 5.29102H50V28.4441H54.6339V13.2022L63.5624 28.4441H68.5192Z" fill="#5F5CEE"/>
<path d="M87.6932 28.4441V23.8102H76.4556V19.1923H84.0605V14.5589H76.4556V9.92494H87.6932V5.29102H71.8221V28.4441H87.6932Z" fill="#5F5CEE"/>
<path d="M99.6666 28.4441V9.92494H106.609V5.29102H88.0901V9.92494H95.0488V28.4441H99.6666Z" fill="#5F5CEE"/>
<path d="M130.03 16.9642C130.03 15.8661 129.887 14.8061 129.602 13.7833C129.317 12.761 128.916 11.8081 128.399 10.9254C127.882 10.0431 127.258 9.23575 126.526 8.50369C125.794 7.77163 124.987 7.1475 124.104 6.63083C123.222 6.11416 122.269 5.71323 121.246 5.42803C120.224 5.14283 119.164 5 118.066 5C116.968 5 115.91 5.14283 114.893 5.42803C113.876 5.71323 112.923 6.11416 112.035 6.63083C111.147 7.1475 110.337 7.77163 109.605 8.50369C108.873 9.23575 108.246 10.0431 107.724 10.9254C107.202 11.8081 106.799 12.761 106.513 13.7833C106.228 14.8061 106.085 15.8661 106.085 16.9642C106.085 18.0623 106.228 19.1195 106.513 20.1367C106.799 21.154 107.202 22.1065 107.724 22.9947C108.246 23.8825 108.873 24.6926 109.605 25.4246C110.337 26.1567 111.147 26.7836 112.035 27.3053C112.923 27.8275 113.876 28.2312 114.893 28.5164C115.91 28.8016 116.968 28.9444 118.066 28.9444C119.164 28.9444 120.224 28.8016 121.246 28.5164C122.269 28.2312 123.222 27.8275 124.104 27.3053C124.987 26.7836 125.794 26.1567 126.526 25.4246C127.258 24.6926 127.882 23.8825 128.399 22.9947C128.916 22.1065 129.317 21.154 129.602 20.1367C129.887 19.1195 130.03 18.0623 130.03 16.9642ZM125.428 16.9642C125.428 17.9759 125.235 18.9257 124.847 19.8139C124.459 20.7021 123.935 21.4796 123.273 22.1469C122.611 22.8142 121.831 23.3419 120.932 23.7291C120.033 24.1167 119.077 24.3105 118.066 24.3105C117.043 24.3105 116.085 24.1167 115.192 23.7291C114.298 23.3419 113.518 22.8142 112.851 22.1469C112.183 21.4796 111.656 20.7021 111.269 19.8139C110.881 18.9257 110.687 17.9759 110.687 16.9642C110.687 15.9524 110.881 14.9972 111.269 14.0984C111.656 13.1996 112.183 12.4189 112.851 11.7571C113.518 11.0953 114.298 10.5704 115.192 10.1827C116.085 9.79559 117.043 9.60178 118.066 9.60178C119.077 9.60178 120.033 9.79559 120.932 10.1827C121.831 10.5704 122.611 11.0953 123.273 11.7571C123.935 12.4189 124.459 13.1996 124.847 14.0984C125.235 14.9972 125.428 15.9524 125.428 16.9642Z" fill="#5F5CEE"/>
<path d="M155.049 21.8244V5.29102H150.431V21.8244C150.431 22.1472 150.369 22.4512 150.245 22.7364C150.121 23.0216 149.955 23.2692 149.745 23.4791C149.535 23.6889 149.29 23.8534 149.01 23.9719C148.73 24.0903 148.429 24.1491 148.106 24.1491C147.783 24.1491 147.481 24.0903 147.202 23.9719C146.922 23.8534 146.677 23.6889 146.467 23.4791C146.257 23.2692 146.093 23.0216 145.975 22.7364C145.856 22.4512 145.797 22.1472 145.797 21.8244V5.29102H141.163V21.8244C141.163 22.1472 141.104 22.4512 140.986 22.7364C140.867 23.0216 140.703 23.2692 140.493 23.4791C140.283 23.6889 140.038 23.8534 139.759 23.9719C139.478 24.0903 139.177 24.1491 138.854 24.1491C138.531 24.1491 138.23 24.0903 137.95 23.9719C137.67 23.8534 137.425 23.6889 137.216 23.4791C137.006 23.2692 136.841 23.0216 136.723 22.7364C136.605 22.4512 136.546 22.1472 136.546 21.8244V5.29102H131.912V21.8244C131.912 22.7824 132.092 23.6839 132.453 24.5289C132.813 25.3735 133.308 26.1111 133.938 26.7407C134.568 27.3704 135.305 27.8655 136.15 28.226C136.995 28.587 137.896 28.767 138.854 28.767C139.715 28.767 140.544 28.6163 141.341 28.3151C142.137 28.0133 142.853 27.5724 143.488 26.991C144.123 27.5724 144.836 28.0133 145.627 28.3151C146.419 28.6163 147.245 28.767 148.106 28.767C149.064 28.767 149.965 28.587 150.81 28.226C151.655 27.8655 152.393 27.3704 153.022 26.7407C153.652 26.1111 154.147 25.3735 154.508 24.5289C154.868 23.6839 155.049 22.7824 155.049 21.8244Z" fill="#5F5CEE"/>
<path d="M180.875 16.9642C180.875 15.8661 180.732 14.8061 180.447 13.7833C180.162 12.761 179.761 11.8081 179.244 10.9254C178.728 10.0431 178.103 9.23575 177.371 8.50369C176.639 7.77163 175.832 7.1475 174.949 6.63083C174.067 6.11416 173.114 5.71323 172.091 5.42803C171.069 5.14283 170.009 5 168.911 5C167.813 5 166.755 5.14283 165.738 5.42803C164.721 5.71323 163.768 6.11416 162.88 6.63083C161.992 7.1475 161.182 7.77163 160.45 8.50369C159.718 9.23575 159.091 10.0431 158.569 10.9254C158.047 11.8081 157.643 12.761 157.358 13.7833C157.073 14.8061 156.931 15.8661 156.931 16.9642C156.931 18.0623 157.073 19.1195 157.358 20.1367C157.643 21.154 158.047 22.1065 158.569 22.9947C159.091 23.8825 159.718 24.6926 160.45 25.4246C161.182 26.1567 161.992 26.7836 162.88 27.3053C163.768 27.8275 164.721 28.2312 165.738 28.5164C166.755 28.8016 167.813 28.9444 168.911 28.9444C170.009 28.9444 171.069 28.8016 172.091 28.5164C173.114 28.2312 174.067 27.8275 174.949 27.3053C175.832 26.7836 176.639 26.1567 177.371 25.4246C178.103 24.6926 178.728 23.8825 179.244 22.9947C179.761 22.1065 180.162 21.154 180.447 20.1367C180.732 19.1195 180.875 18.0623 180.875 16.9642ZM176.273 16.9642C176.273 17.9759 176.079 18.9257 175.692 19.8139C175.304 20.7021 174.78 21.4796 174.118 22.1469C173.456 22.8142 172.675 23.3419 171.777 23.7291C170.878 24.1167 169.923 24.3105 168.911 24.3105C167.888 24.3105 166.93 24.1167 166.037 23.7291C165.143 23.3419 164.363 22.8142 163.696 22.1469C163.028 21.4796 162.501 20.7021 162.113 19.8139C161.726 18.9257 161.532 17.9759 161.532 16.9642C161.532 15.9524 161.726 14.9972 162.113 14.0984C162.501 13.1996 163.028 12.4189 163.696 11.7571C164.363 11.0953 165.143 10.5704 166.037 10.1827C166.93 9.79559 167.888 9.60178 168.911 9.60178C169.923 9.60178 170.878 9.79559 171.777 10.1827C172.675 10.5704 173.456 11.0953 174.118 11.7571C174.78 12.4189 175.304 13.1996 175.692 14.0984C176.079 14.9972 176.273 15.9524 176.273 16.9642Z" fill="#5F5CEE"/>
<path d="M187.552 9.92494H192.186C192.821 9.92494 193.419 10.0457 193.978 10.2882C194.538 10.5302 195.028 10.8614 195.448 11.2811C195.867 11.7009 196.198 12.1932 196.44 12.7586C196.682 13.3235 196.804 13.9237 196.804 14.5589C196.804 15.1936 196.682 15.7938 196.44 16.3592C196.198 16.9241 195.867 17.4164 195.448 17.8361C195.028 18.2559 194.538 18.587 193.978 18.8291C193.419 19.0716 192.821 19.1923 192.186 19.1923H187.552V9.92494ZM187.552 28.4441V23.8102L192.735 23.778L194.753 28.4441H199.678L197.11 22.3892C197.778 21.9695 198.381 21.4744 198.919 20.904C199.457 20.3336 199.912 19.709 200.283 19.0311C200.655 18.3528 200.94 17.6373 201.139 16.8836C201.338 16.13 201.438 15.3552 201.438 14.5589C201.438 13.7083 201.327 12.8904 201.107 12.1046C200.886 11.3188 200.574 10.5817 200.17 9.89234C199.766 9.20345 199.282 8.57656 198.717 8.01167C198.152 7.44632 197.527 6.96226 196.844 6.55857C196.161 6.15488 195.426 5.84259 194.64 5.62214C193.854 5.40124 193.036 5.29102 192.186 5.29102H182.918V28.4441H187.552Z" fill="#5F5CEE"/>
<path d="M208.115 28.4441V23.8102L211.651 19.0794L216.737 28.4441H222L214.686 15.059L222 5.29102H216.737L208.115 16.8676V5.29102H203.481V28.4441H208.115Z" fill="#5F5CEE"/>
</svg>
